<svg width="27" height="30" viewBox="0 0 27 30" xmlns="http://www.w3.org/2000/svg">
<path d="M3.26333 29.6367C2.89979 29.6367 2.60474 29.3417 2.60474 28.9781V18.1492C2.60474 17.7857 2.89979 17.4906 3.26333 17.4906C3.62687 17.4906 3.92192 17.7857 3.92192 18.1492V28.9781C3.92192 29.3417 3.6272 29.6367 3.26333 29.6367Z"/>
<path d="M22.8861 19.5461C22.5226 19.5461 22.2275 19.251 22.2275 18.8875V0.658594C22.2275 0.29505 22.5226 0 22.8861 0C23.2497 0 23.5447 0.29505 23.5447 0.658594V18.8875C23.5447 19.2514 23.2497 19.5461 22.8861 19.5461Z"/>
<path d="M13.0747 29.6367C12.7112 29.6367 12.4161 29.3417 12.4161 28.9781V9.19464C12.4161 8.83109 12.7112 8.53604 13.0747 8.53604C13.4383 8.53604 13.7333 8.83109 13.7333 9.19464V28.9781C13.7333 29.3417 13.4383 29.6367 13.0747 29.6367Z"/>
<path d="M13.0747 9.85323C11.2755 9.85323 9.8114 8.38951 9.8114 6.5899C9.8114 4.79029 11.2751 3.32657 13.0747 3.32657C14.8743 3.32657 16.3381 4.79029 16.3381 6.5899C16.3381 8.38951 14.8743 9.85323 13.0747 9.85323ZM13.0747 4.64409C12.0016 4.64409 11.1286 5.51705 11.1286 6.59023C11.1286 7.66341 12.0016 8.53637 13.0747 8.53637C14.1479 8.53637 15.0209 7.66341 15.0209 6.59023C15.0209 5.51705 14.1479 4.64409 13.0747 4.64409Z"/>
<path d="M3.26333 18.8078C1.46405 18.8078 0 17.3441 0 15.5445C0 13.7452 1.46372 12.2811 3.26333 12.2811C5.06294 12.2811 6.52666 13.7449 6.52666 15.5445C6.52666 17.3441 5.06261 18.8078 3.26333 18.8078ZM3.26333 13.5983C2.19015 13.5983 1.31719 14.4713 1.31719 15.5445C1.31719 16.6176 2.19015 17.4906 3.26333 17.4906C4.33651 17.4906 5.20948 16.6176 5.20948 15.5445C5.20948 14.4713 4.33651 13.5983 3.26333 13.5983Z"/>
<path d="M22.8861 24.7556C21.0868 24.7556 19.6231 23.2918 19.6231 21.4922C19.6231 19.6929 21.0868 18.2292 22.8861 18.2292C24.6857 18.2292 26.1494 19.6929 26.1494 21.4922C26.1494 23.2915 24.6857 24.7556 22.8861 24.7556ZM22.8861 19.5461C21.8129 19.5461 20.9403 20.4187 20.9403 21.4919C20.9403 22.5651 21.8129 23.438 22.8861 23.438C23.9593 23.438 24.8323 22.5651 24.8323 21.4919C24.8323 20.4187 23.9593 19.5461 22.8861 19.5461Z"/>
<path d="M3.26333 13.5983C2.89979 13.5983 2.60474 13.3033 2.60474 12.9397V0.658594C2.60474 0.29505 2.89979 0 3.26333 0C3.62687 0 3.92192 0.29505 3.92192 0.658594V12.9397C3.92192 13.3036 3.6272 13.5983 3.26333 13.5983Z"/>
<path d="M13.0747 4.64407C12.7112 4.64407 12.4161 4.34902 12.4161 3.98548V0.658594C12.4161 0.29505 12.7112 0 13.0747 0C13.4383 0 13.7333 0.29505 13.7333 0.658594V3.98548C13.7333 4.34902 13.4383 4.64407 13.0747 4.64407Z"/>
<path d="M22.8861 29.6367C22.5226 29.6367 22.2275 29.3417 22.2275 28.9781V24.0969C22.2275 23.7334 22.5226 23.4384 22.8861 23.4384C23.2497 23.4384 23.5447 23.7334 23.5447 24.0969V28.9781C23.5447 29.3417 23.2497 29.6367 22.8861 29.6367Z"/>
</svg>
