<?xml version="1.0" encoding="utf-8"?>
<!-- Generator: Adobe Illustrator 19.2.1, SVG Export Plug-In . SVG Version: 6.00 Build 0)  -->
<svg version="1.1" id="layer" xmlns="http://www.w3.org/2000/svg" xmlns:xlink="http://www.w3.org/1999/xlink" x="0px" y="0px"
	 viewBox="0 0 652 652" style="enable-background:new 0 0 652 652;" xml:space="preserve">
<rect x="118" y="302" width="28.1" height="85.5"/>
<rect x="151.9" y="268.6" width="28.1" height="118.9"/>
<rect x="185.8" y="268.6" width="28.1" height="118.9"/>
<path d="M516.3,310.8V302h-28.1v85.5h28.1v-40.7c0-10.5,5.5-16.1,15.5-16.1h3.3v-29.4C526.6,301.5,520.5,304.1,516.3,310.8z"/>
<path d="M132,263.9c-9,0-16.3,7.3-16.3,16.3s7.3,16.3,16.3,16.3c9,0,16.3-7.3,16.3-16.3S141,263.9,132,263.9z"/>
<path d="M454.3,308.5c-3.9-4.3-13.1-7.9-20.1-7.9c-21.2,0-36.4,14-40.2,34.8c-4.1-20-21.5-35.3-42.7-35.3
	c-21.4,0-38.9,15.5-42.8,35.9c-3.7-21.1-20.3-35.1-40.9-35.1c-7.6,0-14,1.7-19.5,5.5v-37.7h-28.1v118.9h27.6v-7.8
	c6.7,6.2,13.8,9,22.6,9c19,0,35-14.9,38.4-35.3c4,20,21.3,35.3,42.7,35.3c21.2,0,38.2-14.9,42.5-34.4c3.6,21.3,20.5,34.7,40.7,34.7
	c7,0,14.6-2.3,19.8-6.2v4.8h28.1V350c0-1.5,0-3,0-4.5c0-1.5,0-3,0-4.5v-39h-28.1V308.5z M264.6,361.4c-9,0-16.3-7.3-16.3-16.3
	c0-9,7.3-16.3,16.3-16.3c9,0,16.3,7.3,16.3,16.3C280.9,354.1,273.6,361.4,264.6,361.4z M351.4,360.1c-9,0-16.3-7.3-16.3-16.3
	c0-9,7.3-16.3,16.3-16.3c9,0,16.3,7.3,16.3,16.3C367.6,352.8,360.4,360.1,351.4,360.1z M435.8,360.6c-9,0-16.3-7.3-16.3-16.3
	c0-9,7.3-16.3,16.3-16.3c9,0,16.3,7.3,16.3,16.3C452.1,353.3,444.8,360.6,435.8,360.6z"/>
<path d="M597.5,268.5v37.7c-5.5-3.8-11.8-5.5-19.5-5.5c-23.4,0-41.7,18.1-41.7,44.2c0,24.6,17.6,43.6,39.1,43.6c8.8,0,16-2.8,22.6-9
	v7.8h27.6V268.5H597.5z M580.9,361.2c-9,0-16.3-7.3-16.3-16.3c0-9,7.3-16.3,16.3-16.3c9,0,16.3,7.3,16.3,16.3
	C597.2,353.9,589.9,361.2,580.9,361.2z"/>
<path d="M73.1,300.8c-7.7,0-14,1.7-19.5,5.5v-37.7H25.6v118.9h27.6v-7.8c6.7,6.2,13.8,9,22.6,9c21.4,0,39.1-19,39.1-43.6
	C114.9,319,96.6,300.8,73.1,300.8z M70.1,361.4c-9,0-16.3-7.3-16.3-16.3c0-9,7.3-16.3,16.3-16.3c9,0,16.3,7.3,16.3,16.3
	C86.4,354.1,79.1,361.4,70.1,361.4z"/>
</svg>
